<svg width="608" height="342" viewBox="0 0 608 342" fill="none" xmlns="http://www.w3.org/2000/svg">
<ellipse cx="304" cy="257.579" rx="43.7827" ry="4.35274" fill="#3D3D3D" fill-opacity="0.5"/>
<g filter="url(#filter0_i)">
<rect width="57.3077" height="57.3077" transform="matrix(0.911578 0.411127 -0.911578 0.411127 304.281 164.749)" fill="#DC564C"/>
</g>
<rect width="57.3077" height="57.3077" transform="matrix(0.911578 0.411127 -0.911578 0.411127 304.281 164.749)" stroke="#890000" stroke-opacity="0.25" stroke-width="0.5"/>
<circle cx="304.052" cy="193.504" r="46.3362" fill="url(#paint0_radial)"/>
<g clip-path="url(#clip0)">
<path d="M318.381 195.301C323.866 189.415 331.039 186.018 331.039 178.773C331.039 174.811 328.086 171.528 324.394 171.528C321.756 171.528 319.436 173.226 318.381 175.603C317.326 173.226 315.005 171.528 312.368 171.528C308.676 171.528 305.722 174.811 305.722 178.773C305.722 186.132 313.212 189.528 318.381 195.301Z" fill="#66C6B9"/>
<path d="M320.807 196.32C319.436 197.792 317.431 197.792 316.06 196.32C316.587 195.641 317.537 195.075 317.537 194.169C318.064 194.169 318.697 194.169 319.225 194.169C319.225 195.075 320.279 195.528 320.807 196.32Z" fill="#66C6B9"/>
<path d="M327.769 175.83C328.508 176.735 328.824 177.868 328.402 178.207C327.98 178.547 327.031 178.207 326.292 177.188C325.554 176.283 325.237 175.151 325.659 174.811C325.976 174.471 326.925 174.924 327.769 175.83Z" fill="white"/>
<path d="M319.436 194.849H317.431C317.22 194.849 317.115 194.735 317.115 194.509C317.115 194.283 317.22 194.169 317.431 194.169H319.436C319.647 194.169 319.752 194.283 319.752 194.509C319.752 194.622 319.647 194.849 319.436 194.849Z" fill="#415A6B"/>
<path d="M316.482 197.228C316.376 197.228 316.165 197.114 316.165 197.001C316.165 196.775 316.271 196.662 316.376 196.548C316.693 196.435 316.904 196.322 316.904 195.756C317.009 194.963 317.748 194.397 317.853 194.284C317.959 194.171 318.17 194.171 318.275 194.397C318.381 194.511 318.381 194.737 318.17 194.85C317.959 194.964 317.537 195.416 317.537 195.869C317.537 196.662 317.22 197.001 316.482 197.228Z" fill="#415A6B"/>
<path d="M320.069 201.981C318.275 198.698 319.014 194.509 319.014 194.509V194.396H318.381C318.275 194.735 317.642 198.811 319.541 202.32C321.229 205.603 318.697 211.49 318.697 211.603C318.592 211.83 318.697 211.943 318.803 212.056H318.908C319.014 212.056 319.119 211.943 319.225 211.83C319.33 211.603 321.967 205.603 320.069 201.981Z" fill="#415A6B"/>
<path d="M293.699 187.717C299.501 181.49 306.991 177.981 306.991 170.396C306.991 166.207 303.826 162.811 300.029 162.811C297.286 162.811 294.86 164.509 293.805 167.113C292.539 164.509 290.113 162.811 287.37 162.811C283.572 162.811 280.408 166.207 280.408 170.396C280.408 178.094 288.319 181.603 293.699 187.717Z" fill="#F3705A"/>
<path d="M296.123 188.735C294.646 190.207 292.641 190.207 291.165 188.735C291.692 187.943 292.747 187.49 292.747 186.471C293.38 186.471 293.907 186.471 294.54 186.471C294.54 187.377 295.595 187.943 296.123 188.735Z" fill="#F3705A"/>
<path d="M303.507 167.226C304.351 168.245 304.562 169.377 304.14 169.717C303.718 170.169 302.663 169.717 301.924 168.698C301.081 167.679 300.87 166.547 301.291 166.207C301.713 165.754 302.663 166.207 303.507 167.226Z" fill="white"/>
<path d="M294.751 187.15H292.641C292.431 187.15 292.325 187.037 292.325 186.811C292.325 186.584 292.431 186.471 292.641 186.471H294.751C294.962 186.471 295.068 186.584 295.068 186.811C295.173 186.924 294.962 187.15 294.751 187.15Z" fill="#415A6B"/>
<path d="M291.692 189.643C291.587 189.643 291.376 189.53 291.376 189.416C291.376 189.19 291.481 189.077 291.587 188.964C291.903 188.85 292.114 188.737 292.219 188.171C292.325 187.379 293.063 186.699 293.169 186.586C293.274 186.473 293.485 186.473 293.591 186.699C293.696 186.813 293.696 187.039 293.485 187.152C293.274 187.266 292.852 187.718 292.747 188.171C292.747 189.077 292.43 189.416 291.692 189.643Z" fill="#415A6B"/>
<path d="M295.384 194.622C293.591 191.113 294.224 186.811 294.329 186.811V186.698H293.696C293.591 187.037 292.958 191.339 294.857 194.962C296.65 198.358 294.013 204.584 293.907 204.698C293.802 204.924 293.907 205.15 294.118 205.15H294.224C294.329 205.15 294.435 205.037 294.54 204.924C294.646 204.811 297.388 198.358 295.384 194.622Z" fill="#415A6B"/>
<path d="M305.722 204.811C310.996 199.264 317.748 195.981 317.748 189.188C317.748 185.452 314.9 182.396 311.418 182.396C308.887 182.396 306.777 183.981 305.722 186.245C304.667 183.981 302.557 182.396 300.026 182.396C296.545 182.396 293.696 185.452 293.696 189.188C293.696 196.094 300.87 199.264 305.722 204.811Z" fill="#FFD15C"/>
<path d="M307.937 205.603C306.671 206.962 304.773 206.962 303.507 205.603C304.034 204.924 304.984 204.471 304.984 203.566C305.511 203.566 306.039 203.566 306.566 203.566C306.566 204.471 307.515 204.924 307.937 205.603Z" fill="#FFD15C"/>
<path d="M314.583 186.245C315.322 187.15 315.532 188.169 315.216 188.509C314.9 188.849 313.95 188.509 313.212 187.603C312.473 186.698 312.262 185.679 312.579 185.339C312.895 185 313.845 185.339 314.583 186.245Z" fill="white"/>
<path d="M306.777 204.245H304.878C304.667 204.245 304.562 204.132 304.562 203.905C304.562 203.679 304.667 203.566 304.878 203.566H306.777C306.988 203.566 307.093 203.679 307.093 203.905C306.988 204.132 306.882 204.245 306.777 204.245Z" fill="#415A6B"/>
<path d="M303.929 206.509C303.823 206.509 303.612 206.395 303.612 206.282C303.612 206.056 303.718 205.943 303.823 205.829C304.14 205.716 304.351 205.603 304.351 205.15C304.456 204.358 305.195 203.792 305.195 203.792C305.3 203.678 305.511 203.678 305.617 203.905C305.722 204.018 305.722 204.245 305.511 204.358C305.3 204.471 304.878 204.924 304.878 205.263C304.878 205.943 304.562 206.395 303.929 206.509Z" fill="#415A6B"/>
<path d="M306.988 216.924C306.988 217.264 307.621 217.264 307.621 216.924C308.043 215 308.254 212.735 307.304 211.037C305.617 207.867 306.355 204.018 306.355 204.018V203.905H305.722C305.617 204.245 305.089 208.094 306.777 211.377C307.621 212.962 307.41 215.113 306.988 216.924Z" fill="#415A6B"/>
</g>
<g clip-path="url(#clip1)">
<path d="M307.726 194.041C305.858 191.744 302.53 191.405 300.29 193.283C296.645 196.343 291.655 198.827 286.239 200.278C286.23 200.281 286.22 200.282 286.211 200.285L288.996 210.678C289.005 210.675 289.015 210.674 289.024 210.671C295.968 208.81 302.204 205.674 307.057 201.601C309.295 199.723 309.594 196.338 307.726 194.041Z" fill="#9B6534"/>
<path d="M264.513 205.62C264.982 202.696 267.695 200.739 270.574 201.246C275.261 202.073 280.824 201.729 286.24 200.278C286.249 200.276 286.258 200.272 286.268 200.27L289.052 210.663C289.043 210.665 289.034 210.668 289.024 210.671C282.08 212.532 275.111 212.933 268.873 211.833C265.995 211.325 264.044 208.543 264.513 205.62Z" fill="#AA7135"/>
<path d="M304.61 200.925C306.485 200.422 307.59 198.464 307.077 196.551C306.564 194.638 304.629 193.494 302.754 193.996C300.879 194.499 299.774 196.457 300.287 198.37C300.8 200.284 302.735 201.427 304.61 200.925Z" fill="#B9A086"/>
<path d="M291.813 221.063C298.375 219.304 302.24 212.45 300.446 205.754C298.652 199.057 291.877 195.054 285.315 196.813C278.752 198.571 274.887 205.425 276.681 212.121C278.475 218.818 285.25 222.821 291.813 221.063Z" fill="#AA7135"/>
<path d="M290.884 217.598C294.547 216.617 296.477 211.944 295.196 207.161C293.914 202.377 289.906 199.295 286.243 200.277C282.58 201.258 280.65 205.931 281.932 210.715C283.213 215.498 287.221 218.58 290.884 217.598Z" fill="#D5B99B"/>
<path d="M285.311 196.814C281.984 197.705 279.355 199.91 277.8 202.736L299.188 215.374C300.802 212.583 301.352 209.15 300.443 205.755C298.648 199.059 291.874 195.055 285.311 196.814Z" fill="#A26B34"/>
<path d="M286.24 200.278C284.077 200.857 282.543 202.739 281.893 205.154L295.146 212.986C295.67 211.25 295.745 209.226 295.192 207.162C293.91 202.379 289.902 199.297 286.24 200.278Z" fill="#B9A086"/>
<path d="M293.643 187.155C297.393 186.15 299.602 182.234 298.577 178.407C297.551 174.58 293.68 172.293 289.93 173.298C286.18 174.303 283.971 178.219 284.997 182.046C286.022 185.872 289.893 188.16 293.643 187.155Z" fill="#AA7135"/>
<path d="M273.27 192.614C277.02 191.609 279.229 187.693 278.203 183.866C277.178 180.04 273.307 177.752 269.557 178.757C265.807 179.762 263.598 183.678 264.623 187.505C265.649 191.331 269.52 193.619 273.27 192.614Z" fill="#AA7135"/>
<path d="M272.342 189.15C274.217 188.647 275.321 186.689 274.808 184.776C274.296 182.862 272.36 181.719 270.485 182.221C268.61 182.724 267.506 184.682 268.018 186.595C268.531 188.508 270.467 189.652 272.342 189.15Z" fill="#D5B99B"/>
<path d="M292.715 183.691C294.59 183.188 295.694 181.23 295.182 179.317C294.669 177.403 292.734 176.26 290.859 176.762C288.984 177.265 287.879 179.223 288.392 181.136C288.904 183.049 290.84 184.193 292.715 183.691Z" fill="#D5B99B"/>
<path d="M287.171 203.741C294.203 201.857 298.344 194.514 296.422 187.339C294.499 180.164 287.241 175.875 280.209 177.759C273.178 179.643 269.037 186.987 270.959 194.161C272.882 201.336 280.14 205.625 287.171 203.741Z" fill="#AA7135"/>
<path d="M278.362 191.249C279.3 190.998 279.852 190.019 279.596 189.062C279.339 188.106 278.372 187.534 277.434 187.785C276.497 188.036 275.944 189.016 276.201 189.972C276.457 190.929 277.425 191.501 278.362 191.249Z" fill="#231F20"/>
<path d="M288.551 188.519C289.488 188.268 290.041 187.289 289.784 186.332C289.528 185.376 288.56 184.804 287.623 185.055C286.685 185.306 286.133 186.286 286.389 187.242C286.646 188.199 287.613 188.771 288.551 188.519Z" fill="#231F20"/>
<path d="M286.707 202.009C290.457 201.004 292.666 197.088 291.641 193.261C290.615 189.435 286.744 187.147 282.994 188.152C279.244 189.157 277.035 193.073 278.061 196.9C279.086 200.726 282.957 203.014 286.707 202.009Z" fill="#D5B99B"/>
<path d="M284.851 195.08C285.788 194.829 286.34 193.85 286.084 192.893C285.828 191.937 284.86 191.365 283.922 191.616C282.985 191.867 282.433 192.847 282.689 193.803C282.945 194.76 283.913 195.332 284.851 195.08Z" fill="#231F20"/>
<path d="M270.657 210.023C272.532 209.52 273.636 207.562 273.124 205.649C272.611 203.735 270.676 202.592 268.801 203.094C266.926 203.597 265.821 205.555 266.334 207.468C266.846 209.381 268.782 210.525 270.657 210.023Z" fill="#D5B99B"/>
<path d="M291.871 200.752C292.523 200.178 293.547 200.502 293.775 201.355L294.861 205.407C295.09 206.26 294.365 207.053 293.513 206.882L287.844 206.377L287.219 204.045L291.871 200.752Z" fill="#D64231"/>
<path d="M294.541 206.563L288.611 203.059L287.219 204.045L287.843 206.377L293.513 206.882C293.916 206.963 294.282 206.817 294.541 206.563Z" fill="#B22F28"/>
<path d="M286.947 202.881C286.363 203.037 285.907 203.418 285.605 203.895L281.543 203.519C280.692 203.348 279.967 204.141 280.195 204.993L281.281 209.046C281.51 209.899 282.534 210.223 283.186 209.649L286.532 207.298C287.029 207.554 287.607 207.655 288.184 207.5C289.435 207.165 290.171 205.859 289.829 204.584C289.487 203.308 288.197 202.546 286.947 202.881Z" fill="#D64231"/>
<path d="M277.8 213.858L275.949 215.928C272.774 214.297 269.243 214.648 267.5 216.997C265.46 219.746 266.644 224.167 270.144 226.872C272.233 228.487 274.949 229.295 277.46 228.622C278.331 228.388 279.216 227.844 279.804 227.228L285.759 220.956C288.364 218.246 280.637 210.84 277.8 213.858Z" fill="#AA7135"/>
<path d="M276.137 219.136C272.97 216.688 269.01 216.508 266.771 218.528C265.959 221.202 267.235 224.624 270.144 226.872C273.311 229.319 277.271 229.5 279.51 227.479C280.322 224.806 279.046 221.384 276.137 219.136Z" fill="#D5B99B"/>
<path d="M300.338 207.819L302.976 208.686C304.91 205.686 308.143 204.224 310.827 205.387C313.969 206.748 315.154 211.169 313.475 215.262C312.473 217.704 310.526 219.762 308.015 220.435C307.144 220.668 306.105 220.639 305.288 220.399L296.995 217.945C293.383 216.901 296.372 206.624 300.338 207.819Z" fill="#9B6534"/>
<path d="M304.417 211.558C305.936 207.855 309.275 205.719 312.225 206.349C314.265 208.259 314.871 211.86 313.475 215.262C311.956 218.965 308.617 221.101 305.668 220.471C303.628 218.561 303.022 214.959 304.417 211.558Z" fill="#B9A086"/>
</g>
<rect x="296.414" y="200.713" width="43.2751" height="28.9811" rx="1" transform="rotate(-26.7689 296.414 200.713)" fill="#FF8086"/>
<path d="M320.236 199.877L347.501 206.82C347.324 207.31 346.966 207.737 346.464 207.99L311.175 225.792C310.672 226.046 310.116 226.08 309.616 225.931C312.585 218.647 320.236 199.877 320.236 199.877Z" fill="#E5646E"/>
<path d="M324.323 207.978L334.943 181.924C334.443 181.776 333.887 181.809 333.385 182.063L298.095 199.865C297.593 200.118 297.235 200.545 297.058 201.035C304.68 202.976 324.323 207.978 324.323 207.978Z" fill="#FF9A9F"/>
<path d="M322.882 209.822L324.186 212.408C324.388 212.808 324.953 212.821 325.174 212.432L325.913 211.129L327.399 211.31C327.844 211.363 328.169 210.9 327.967 210.501L326.663 207.915L324.323 207.978L322.882 209.822Z" fill="#FFE07D"/>
<path d="M322.882 209.822C323.585 209.764 324.29 209.576 324.959 209.238C325.628 208.901 326.198 208.446 326.663 207.915L325.578 205.764L321.797 207.671L322.882 209.822Z" fill="#FFD064"/>
<path d="M324.323 207.978C326.411 206.925 327.25 204.378 326.197 202.29C325.143 200.202 322.597 199.363 320.508 200.416C318.42 201.47 317.581 204.016 318.635 206.105C319.688 208.193 322.235 209.032 324.323 207.978Z" fill="#DB4655"/>
<path d="M323.687 206.718C325.079 206.016 325.639 204.318 324.936 202.926C324.234 201.534 322.536 200.974 321.144 201.677C319.752 202.379 319.193 204.077 319.895 205.469C320.597 206.861 322.295 207.42 323.687 206.718Z" fill="#FF8086"/>
<rect width="57.3077" height="47.1215" transform="matrix(0.911578 0.411127 -2.82021e-08 1 252.022 188.31)" fill="#E83030"/>
<rect x="0.455789" y="0.705563" width="56.3077" height="46.1215" transform="matrix(0.911578 0.411127 -2.82021e-08 1 252.063 188.122)" stroke="#890000" stroke-opacity="0.2" stroke-linejoin="round"/>
<rect width="15.3477" height="47.152" transform="matrix(0.911578 0.411127 -2.82021e-08 1 270.54 196.657)" fill="#FFED50"/>
<rect x="0.227895" y="0.352782" width="14.8477" height="46.652" transform="matrix(0.911578 0.411127 -2.82021e-08 1 270.56 196.563)" stroke="#680000" stroke-opacity="0.2" stroke-width="0.5" stroke-linejoin="round"/>
<rect width="57.3077" height="47.1215" transform="matrix(0.911578 -0.411127 2.82021e-08 1 304.23 211.87)" fill="#E83030"/>
<rect x="0.455789" y="0.294437" width="56.3077" height="46.1215" transform="matrix(0.911578 -0.411127 2.82021e-08 1 304.27 212.058)" stroke="#890000" stroke-opacity="0.2" stroke-linejoin="round"/>
<rect width="15.3477" height="47.152" transform="matrix(0.911578 -0.411127 2.82021e-08 1 325.745 202.221)" fill="#FFED50"/>
<rect x="0.227895" y="0.147218" width="14.8477" height="46.652" transform="matrix(0.911578 -0.411127 2.82021e-08 1 325.765 202.315)" stroke="#680000" stroke-opacity="0.2" stroke-width="0.5" stroke-linejoin="round"/>
<path d="M304 151.045L359 175.499L304 199.952L249 175.499L304 151.045Z" fill="#E83030"/>
<path d="M249 175.506L304 199.96V217.444L249 192.991V175.506Z" fill="#E83030"/>
<path d="M359 175.506L304 199.96V217.444L359 192.991V175.506Z" fill="#E83030"/>
<path d="M304 199.96L249 175.506V192.991L304 217.444M304 199.96V217.444M304 199.96L359 175.506V192.991L304 217.444M359 175.499L304 151.045L249 175.499L304 199.952L359 175.499Z" stroke="#680000" stroke-opacity="0.15" stroke-linejoin="round"/>
<mask id="path-63-inside-1" fill="white">
<path fill-rule="evenodd" clip-rule="evenodd" d="M322.036 159.046L333.941 164.335L316.833 173.576L340.018 184.091L340.157 184.029V201.292L326.166 207.602V190.472L304.514 180.231L284.005 191.31L284.005 208.575L270.014 202.265L270.014 184.982L269.992 184.972L270.014 184.962V184.961L270.015 184.961L291.688 174.165L272.652 165.161L285.143 159.204L304.289 167.887L322.036 159.046Z"/>
</mask>
<path fill-rule="evenodd" clip-rule="evenodd" d="M322.036 159.046L333.941 164.335L316.833 173.576L340.018 184.091L340.157 184.029V201.292L326.166 207.602V190.472L304.514 180.231L284.005 191.31L284.005 208.575L270.014 202.265L270.014 184.982L269.992 184.972L270.014 184.962V184.961L270.015 184.961L291.688 174.165L272.652 165.161L285.143 159.204L304.289 167.887L322.036 159.046Z" fill="#FFED50"/>
<path d="M333.941 164.335L334.179 164.775C334.347 164.684 334.448 164.506 334.441 164.316C334.434 164.125 334.319 163.955 334.144 163.878L333.941 164.335ZM322.036 159.046L322.239 158.589C322.103 158.528 321.947 158.532 321.813 158.598L322.036 159.046ZM316.833 173.576L316.595 173.137C316.428 173.227 316.327 173.404 316.333 173.594C316.34 173.784 316.454 173.953 316.627 174.032L316.833 173.576ZM340.018 184.091L339.811 184.547C339.942 184.606 340.092 184.606 340.223 184.547L340.018 184.091ZM340.157 184.029H340.657C340.657 183.859 340.57 183.701 340.428 183.609C340.285 183.517 340.106 183.503 339.951 183.573L340.157 184.029ZM340.157 201.292L340.362 201.748C340.541 201.667 340.657 201.489 340.657 201.292H340.157ZM326.166 207.602H325.666C325.666 207.772 325.752 207.93 325.895 208.022C326.037 208.114 326.217 208.127 326.371 208.058L326.166 207.602ZM326.166 190.472H326.666C326.666 190.278 326.554 190.102 326.38 190.02L326.166 190.472ZM304.514 180.231L304.728 179.779C304.584 179.711 304.416 179.715 304.276 179.791L304.514 180.231ZM284.005 191.31L283.767 190.87C283.605 190.957 283.505 191.126 283.505 191.31H284.005ZM284.005 208.575L283.799 209.031C283.954 209.1 284.133 209.087 284.276 208.995C284.419 208.903 284.505 208.745 284.505 208.575H284.005ZM270.014 202.265H269.514C269.514 202.462 269.629 202.64 269.808 202.721L270.014 202.265ZM270.014 184.982H270.514C270.514 184.786 270.399 184.608 270.22 184.527L270.014 184.982ZM269.992 184.972L269.769 184.525C269.597 184.611 269.489 184.789 269.492 184.982C269.496 185.175 269.61 185.348 269.786 185.428L269.992 184.972ZM270.014 184.962L270.237 185.409C270.407 185.325 270.514 185.151 270.514 184.962H270.014ZM270.014 184.961L270.22 184.505C270.065 184.435 269.885 184.449 269.743 184.541C269.6 184.633 269.514 184.791 269.514 184.961H270.014ZM270.015 184.961L269.809 185.417C269.946 185.479 270.103 185.476 270.238 185.409L270.015 184.961ZM291.688 174.165L291.911 174.612C292.082 174.527 292.19 174.351 292.188 174.159C292.186 173.968 292.074 173.794 291.901 173.713L291.688 174.165ZM272.652 165.161L272.436 164.71C272.262 164.793 272.151 164.969 272.152 165.162C272.152 165.355 272.263 165.531 272.438 165.613L272.652 165.161ZM285.143 159.204L285.35 158.749C285.215 158.688 285.061 158.689 284.928 158.753L285.143 159.204ZM304.289 167.887L304.082 168.342C304.219 168.405 304.377 168.402 304.511 168.335L304.289 167.887ZM334.144 163.878L322.239 158.589L321.833 159.503L333.738 164.792L334.144 163.878ZM317.071 174.016L334.179 164.775L333.704 163.895L316.595 173.137L317.071 174.016ZM340.224 183.636L317.04 173.121L316.627 174.032L339.811 184.547L340.224 183.636ZM340.223 184.547L340.362 184.485L339.951 183.573L339.812 183.636L340.223 184.547ZM339.657 184.029V201.292H340.657V184.029H339.657ZM339.951 200.836L325.96 207.146L326.371 208.058L340.362 201.748L339.951 200.836ZM326.666 207.602V190.472H325.666V207.602H326.666ZM304.3 180.683L325.952 190.924L326.38 190.02L304.728 179.779L304.3 180.683ZM284.242 191.75L304.752 180.671L304.276 179.791L283.767 190.87L284.242 191.75ZM284.505 208.575L284.505 191.31H283.505L283.505 208.575H284.505ZM269.808 202.721L283.799 209.031L284.21 208.119L270.22 201.809L269.808 202.721ZM269.514 184.982L269.514 202.265H270.514L270.514 184.982H269.514ZM269.786 185.428L269.808 185.438L270.22 184.527L270.199 184.517L269.786 185.428ZM269.791 184.514L269.769 184.525L270.215 185.42L270.237 185.409L269.791 184.514ZM269.514 184.961V184.962H270.514V184.961H269.514ZM270.221 184.506L270.22 184.505L269.808 185.417L269.809 185.417L270.221 184.506ZM291.465 173.717L269.792 184.514L270.238 185.409L291.911 174.612L291.465 173.717ZM272.438 165.613L291.474 174.617L291.901 173.713L272.865 164.709L272.438 165.613ZM284.928 158.753L272.436 164.71L272.867 165.613L285.358 159.655L284.928 158.753ZM304.495 167.432L285.35 158.749L284.937 159.66L304.082 168.342L304.495 167.432ZM321.813 158.598L304.066 167.44L304.511 168.335L322.259 159.493L321.813 158.598Z" fill="#680000" fill-opacity="0.2" mask="url(#path-63-inside-1)"/>
<path d="M302.11 177.868C292.839 177.767 287.702 189.239 287.702 189.239L286.034 181.201L277.996 182.863C279.804 177.278 284.304 172.979 289.967 171.43C292.651 170.627 299.256 171.474 302.7 172.124L302.11 177.868Z" fill="#F9AE57"/>
<path d="M278.372 182.53C280.238 177.225 284.591 173.16 290.033 171.671L290.033 171.671L290.039 171.67C290.677 171.479 291.567 171.382 292.61 171.358C293.649 171.335 294.825 171.386 296.029 171.482C298.332 171.665 300.723 172.014 302.427 172.327L301.884 177.617C297.25 177.66 293.661 180.522 291.239 183.353C290.005 184.795 289.065 186.239 288.433 187.322C288.167 187.779 287.955 188.173 287.798 188.475L286.279 181.151C286.251 181.015 286.119 180.929 285.983 180.957L278.372 182.53Z" stroke="#680000" stroke-opacity="0.2" stroke-width="0.5" stroke-linejoin="round"/>
<path d="M305.111 178.401C313.849 181.503 314.715 194.044 314.715 194.044L319.051 187.073L326.022 191.41C326.287 185.711 323.704 180.252 319.129 176.843C314.739 174.715 309.975 173.468 305.105 173.174L305.111 178.401Z" fill="#F9AE57"/>
<path d="M305.355 173.441C310.092 173.761 314.724 174.989 318.999 177.058C323.38 180.332 325.902 185.517 325.787 190.969L319.183 186.861C319.066 186.788 318.912 186.824 318.839 186.941L314.887 193.293C314.845 192.955 314.782 192.513 314.689 191.992C314.469 190.758 314.085 189.078 313.424 187.299C312.122 183.793 309.728 179.853 305.361 178.226L305.355 173.441Z" stroke="#680000" stroke-opacity="0.2" stroke-width="0.5" stroke-linejoin="round"/>
<path d="M305.745 166.129C305.745 166.129 305.898 148.525 291.874 145.112C291.072 144.927 290.234 144.972 289.456 145.24C286.764 146.134 280.44 148.801 277.1 154.949C276.202 156.587 276.102 158.545 276.828 160.266C279.011 165.409 285.342 175.269 296.903 172.359L305.745 166.129Z" fill="#FFEC43"/>
<path d="M305.495 165.999L296.797 172.127C291.128 173.54 286.75 171.834 283.509 169.14C280.25 166.431 278.141 162.719 277.059 160.169C276.363 158.518 276.458 156.64 277.319 155.069L277.319 155.068C280.613 149.007 286.86 146.365 289.535 145.478L289.535 145.478L289.538 145.477C290.271 145.223 291.06 145.181 291.816 145.356C298.714 147.035 302.134 152.2 303.833 156.984C304.683 159.376 305.098 161.664 305.302 163.355C305.403 164.2 305.452 164.895 305.475 165.377C305.486 165.619 305.491 165.807 305.494 165.935C305.494 165.958 305.494 165.98 305.495 165.999Z" stroke="#680000" stroke-opacity="0.2" stroke-width="0.5" stroke-linejoin="round"/>
<path d="M297.957 168.747C292.186 163.667 291.441 155.367 291.369 152.335C291.364 152.065 291.502 151.813 291.731 151.671C291.961 151.53 292.248 151.52 292.487 151.646C299.113 154.847 300.63 163.776 300.918 166.208L297.957 168.747Z" fill="#F9AE57"/>
<path d="M292.37 151.867L292.37 151.867L292.378 151.871C295.614 153.434 297.617 156.404 298.849 159.313C300.036 162.118 300.495 164.837 300.653 166.105L297.961 168.415C292.423 163.398 291.69 155.326 291.619 152.329C291.616 152.148 291.708 151.979 291.862 151.884C292.017 151.789 292.21 151.782 292.37 151.867Z" stroke="#680000" stroke-opacity="0.2" stroke-width="0.5" stroke-linejoin="round"/>
<path d="M311.907 175.022C313.727 176.298 315.798 177.173 317.983 177.589C318.747 177.729 319.522 177.799 320.298 177.799C326.745 177.861 332.217 173.464 334.914 170.583C335.494 169.971 335.94 169.244 336.222 168.449C336.548 167.5 336.643 166.487 336.501 165.494C335.489 160.171 332.548 155.409 328.242 152.12C327.612 151.593 326.842 151.262 326.027 151.167C315.509 149.963 309.506 158.572 307.062 163.261C306.561 164.188 306.122 165.146 305.745 166.13L311.907 175.022Z" fill="#FFEC43"/>
<path d="M320.301 177.549H320.298C319.537 177.549 318.777 177.48 318.029 177.343C315.894 176.937 313.869 176.085 312.087 174.842L306.026 166.097C306.388 165.166 306.807 164.259 307.282 163.38L307.282 163.38L307.284 163.377C309.723 158.696 315.652 150.231 325.998 151.415C326.765 151.505 327.489 151.816 328.081 152.312L328.081 152.312L328.09 152.319C332.346 155.569 335.252 160.275 336.254 165.536C336.39 166.487 336.298 167.457 335.986 168.366C335.716 169.128 335.289 169.824 334.732 170.411L334.731 170.412C332.049 173.278 326.64 177.61 320.301 177.549Z" stroke="#680000" stroke-opacity="0.2" stroke-width="0.5" stroke-linejoin="round"/>
<path d="M310.251 167.869C311.361 165.685 315.862 157.83 323.187 157.106C323.455 157.07 323.721 157.178 323.888 157.391C324.055 157.603 324.096 157.888 323.998 158.139C322.885 160.96 319.324 168.493 312.155 171.273L310.251 167.869Z" fill="#F9AE57"/>
<path d="M323.211 157.355L323.212 157.355L323.22 157.354C323.4 157.33 323.579 157.402 323.691 157.545C323.803 157.688 323.831 157.879 323.765 158.048C322.665 160.835 319.194 168.159 312.267 170.96L310.535 167.864C311.122 166.728 312.489 164.334 314.571 162.111C316.73 159.806 319.634 157.708 323.211 157.355Z" stroke="#680000" stroke-opacity="0.2" stroke-width="0.5" stroke-linejoin="round"/>
<path d="M312.184 173.461L311.643 176.461C311.344 178.116 309.765 179.219 308.108 178.928L299.104 177.326C297.449 177.028 296.346 175.448 296.636 173.791L297.169 170.79C297.452 169.198 298.356 167.783 299.683 166.857C301.009 165.932 302.648 165.571 304.241 165.854L307.242 166.389C308.836 166.671 310.252 167.574 311.179 168.901C312.106 170.227 312.467 171.867 312.184 173.461Z" fill="#FFED50"/>
<path d="M307.198 166.635L307.199 166.635C308.727 166.905 310.085 167.772 310.974 169.044C311.863 170.316 312.21 171.889 311.938 173.417C311.938 173.417 311.938 173.417 311.938 173.417L311.397 176.416C311.123 177.936 309.673 178.948 308.152 178.682C308.151 178.682 308.151 178.682 308.151 178.682L299.148 177.08C299.148 177.08 299.148 177.08 299.148 177.08C297.628 176.806 296.616 175.356 296.882 173.835C296.882 173.835 296.882 173.835 296.882 173.835L297.415 170.834C297.415 170.834 297.415 170.834 297.415 170.834C297.687 169.307 298.554 167.95 299.826 167.062C301.098 166.175 302.67 165.829 304.197 166.1C304.197 166.1 304.197 166.1 304.197 166.1L307.198 166.635Z" stroke="#680000" stroke-opacity="0.2" stroke-width="0.5" stroke-linejoin="round"/>
<defs>
<filter id="filter0_i" x="251.584" y="164.543" width="105.393" height="49.5326" filterUnits="userSpaceOnUse" color-interpolation-filters="sRGB">
<feFlood flood-opacity="0" result="BackgroundImageFix"/>
<feBlend mode="normal" in="SourceGraphic" in2="BackgroundImageFix" result="shape"/>
<feColorMatrix in="SourceAlpha" type="matrix" values="0 0 0 0 0 0 0 0 0 0 0 0 0 0 0 0 0 0 127 0" result="hardAlpha"/>
<feOffset dy="2"/>
<feGaussianBlur stdDeviation="7.5"/>
<feComposite in2="hardAlpha" operator="arithmetic" k2="-1" k3="1"/>
<feColorMatrix type="matrix" values="0 0 0 0 0 0 0 0 0 0 0 0 0 0 0 0 0 0 0.25 0"/>
<feBlend mode="normal" in2="shape" result="effect1_innerShadow"/>
</filter>
<radialGradient id="paint0_radial" cx="0" cy="0" r="1" gradientUnits="userSpaceOnUse" gradientTransform="translate(304.052 193.504) rotate(90) scale(46.3362)">
<stop stop-color="#FFED50"/>
<stop offset="1" stop-color="#FFED50" stop-opacity="0"/>
</radialGradient>
<clipPath id="clip0">
<rect width="50.6609" height="54.3678" fill="white" transform="translate(280.392 162.811)"/>
</clipPath>
<clipPath id="clip1">
<rect width="49.207" height="50.2112" fill="white" transform="translate(255.976 182.396) rotate(-15)"/>
</clipPath>
</defs>
</svg>
